# This file uses centimeters as units for non-parametric coordinates.

mtllib low.mtl
g default
v 2.444539 0.534610 -4.515845
v 2.377546 0.534317 -4.448853
v 2.353025 0.533916 -4.357339
v 2.536053 0.534718 -4.540367
v 2.398314 0.599149 -4.303445
v 2.422853 0.599149 -4.395091
v 2.489917 0.599149 -4.462201
v 2.581557 0.599149 -4.486774
v 2.372467 0.499509 3.500664
v 2.436038 0.499141 3.584638
v 2.536053 0.498989 3.619280
v 2.353025 0.499957 3.398257
v 2.475718 0.599149 3.539777
v 2.414475 0.599149 3.444993
v 2.398314 0.599149 3.335380
v 2.581453 0.599149 3.580929
v 4.857063 0.599149 -4.303445
v 4.832525 0.599149 -4.395091
v 4.765460 0.599149 -4.462201
v 4.673820 0.599149 -4.486774
v 4.877830 0.534317 -4.448852
v 4.810838 0.534610 -4.515845
v 4.719324 0.534718 -4.540367
v 4.902351 0.533916 -4.357339
v 4.819339 0.499141 3.584638
v 4.882909 0.499509 3.500664
v 4.902351 0.499957 3.398257
v 4.719324 0.498989 3.619280
v 4.840902 0.599149 3.444993
v 4.779659 0.599149 3.539777
v 4.673924 0.599149 3.580929
v 4.857063 0.599149 3.335380
v 2.486038 5.656875 -4.606615
v 2.390980 5.656875 -4.580611
v 2.322022 5.656875 -4.510280
v 2.297042 5.656875 -4.415060
v 2.581396 5.603001 -4.486774
v 2.489851 5.603001 -4.462240
v 2.422840 5.603001 -4.395218
v 2.398314 5.603001 -4.303671
v 2.480070 5.977667 -4.606615
v 2.388556 5.977667 -4.582094
v 2.321563 5.977667 -4.515100
v 2.297042 5.977667 -4.423587
v 2.581342 1.467897 -4.486774
v 2.489829 1.467897 -4.462253
v 2.422835 1.467897 -4.395260
v 2.398314 1.467897 -4.303746
v 2.422835 0.262242 -4.395259
v 2.489829 0.262242 -4.462252
v 2.581342 0.262242 -4.486773
v 2.398314 0.262242 -4.303745
v 2.486038 5.656875 4.606615
v 2.390980 5.656875 4.580612
v 2.322022 5.656875 4.510280
v 2.297042 5.656875 4.415061
v 2.321563 5.977667 4.515101
v 2.388556 5.977667 4.582094
v 2.480070 5.977667 4.606615
v 2.297042 5.977667 4.423587
v 2.581396 5.603001 4.486774
v 2.489851 5.603001 4.462241
v 2.422840 5.603001 4.395218
v 2.398314 5.603001 4.303672
v 2.581342 1.467897 4.486774
v 2.489178 1.467897 4.461459
v 2.422440 1.467897 4.393125
v 2.398314 1.467897 4.300771
v 2.489829 0.262242 3.326169
v 2.422835 0.262242 3.259176
v 2.398314 0.262242 3.167663
v 2.581342 0.262242 3.350690
v 4.933355 5.656875 -4.510280
v 4.864397 5.656875 -4.580611
v 4.769339 5.656875 -4.606615
v 4.958335 5.656875 -4.415060
v 4.933815 5.977667 -4.515100
v 4.866822 5.977667 -4.582093
v 4.775308 5.977667 -4.606615
v 4.958335 5.977667 -4.423587
v 4.857063 5.603001 -4.303671
v 4.832537 5.603001 -4.395218
v 4.765527 5.603001 -4.462240
v 4.673982 5.603001 -4.486774
v 4.832542 1.467897 -4.395260
v 4.765549 1.467897 -4.462253
v 4.674036 1.467897 -4.486774
v 4.857063 1.467897 -4.303746
v 4.765549 0.262242 -4.462252
v 4.832542 0.262242 -4.395259
v 4.857063 0.262242 -4.303745
v 4.674036 0.262242 -4.486773
v 4.864397 5.656875 4.580612
v 4.933355 5.656875 4.510281
v 4.958335 5.656875 4.415061
v 4.769339 5.656875 4.606615
v 4.866822 5.977667 4.582094
v 4.933815 5.977667 4.515101
v 4.958335 5.977667 4.423587
v 4.775308 5.977667 4.606615
v 4.765527 5.603001 4.462240
v 4.832537 5.603001 4.395218
v 4.857063 5.603001 4.303672
v 4.673982 5.603001 4.486774
v 4.832938 1.467897 4.393125
v 4.766200 1.467897 4.461459
v 4.674036 1.467897 4.486774
v 4.857063 1.467897 4.300771
v 4.832542 0.262242 3.259176
v 4.765549 0.262242 3.326169
v 4.674036 0.262242 3.350690
v 4.857063 0.262242 3.167663
vt 0.445133 0.019801
vt 0.449663 0.018426
vt 0.445507 0.131958
vt 0.642895 0.793095
vt 0.611419 0.939394
vt 0.602136 0.937568
vt 0.444356 0.003995
vt 0.646922 0.761202
vt 0.637854 0.765001
vt 0.942918 0.835930
vt 0.955183 0.836356
vt 0.935341 0.959686
vt 0.930870 0.983411
vt 0.943061 0.985397
vt 0.175122 0.150646
vt 0.176155 0.133372
vt 0.169191 0.133467
vt 0.175623 0.020572
vt 0.399387 0.133029
vt 0.398857 0.019700
vt 0.698080 0.948348
vt 0.709510 0.835179
vt 0.399426 0.148205
vt 0.446298 0.148243
vt 0.693623 0.970757
vt 0.398809 0.004685
vt 0.709452 0.812494
vt 0.177050 0.005013
vt 0.946554 0.809786
vt 0.451114 0.137287
vt 0.445760 0.137331
vt 0.450987 0.141532
vt 0.446044 0.142722
vt 0.399424 0.138088
vt 0.399439 0.143151
vt 0.597957 0.944525
vt 0.607163 0.949415
vt 0.601593 0.958198
vt 0.695771 0.963731
vt 0.697304 0.956191
vt 0.445398 0.009034
vt 0.398850 0.009681
vt 0.445387 0.014365
vt 0.398867 0.014684
vt 0.635305 0.780893
vt 0.645496 0.782402
vt 0.636809 0.773095
vt 0.646762 0.771590
vt 0.710259 0.827718
vt 0.710189 0.820121
vt 0.167450 0.141505
vt 0.175403 0.144799
vt 0.166721 0.137140
vt 0.175762 0.139079
vt 0.934658 0.967873
vt 0.933327 0.975861
vt 0.166909 0.013129
vt 0.175751 0.015218
vt 0.167883 0.008441
vt 0.176147 0.010003
vt 0.958724 0.829884
vt 0.943938 0.827348
vt 0.944940 0.818708
vt 0.957882 0.822730
vt 0.949113 0.971473
vt 0.947344 0.978943
vt 0.019906 0.634257
vt 0.975476 0.967208
vt 0.014976 0.633016
vt 0.985134 0.821832
vt 0.170192 0.004136
vt 0.979837 0.814814
vt 0.152316 0.001470
vt 0.150842 0.132259
vt 0.151332 0.016399
vt 0.145834 0.137995
vt 0.151026 0.006464
vt 0.150049 0.011586
vt 0.593782 0.951400
vt 0.571422 0.928780
vt 0.591447 0.562551
vt 0.473055 0.561852
vt 0.565781 0.944217
vt 0.450554 0.145725
vt 0.467961 0.553585
vt 0.450553 0.013940
vt 0.450325 0.009274
vt 0.465487 0.147900
vt 0.588988 0.137525
vt 0.465317 0.132350
vt 0.465775 0.142747
vt 0.593915 0.138771
vt 0.616510 0.300043
vt 0.619333 0.751791
vt 0.635348 0.296462
vt 0.449232 0.004596
vt 0.466961 0.143058
vt 0.601269 0.552932
vt 0.956048 0.815093
vt 0.464972 0.004540
vt 0.695659 0.300097
vt 0.940739 0.296855
vt 0.641665 0.300000
vt 0.599957 0.557753
vt 0.464791 0.019826
vt 0.450126 0.133131
vt 0.475511 0.138244
vt 0.613709 0.758385
vt 0.168193 0.017798
vt 0.596360 0.561254
vt 0.609665 0.766184
vt 0.465033 0.009499
vt 0.597549 0.142233
vt 0.477989 0.563105
vt 0.568731 0.936664
vt 0.974219 0.991518
vt 0.465335 0.014741
vt 0.470596 0.139550
vt 0.466069 0.137465
vt 0.150238 0.142108
vt 0.558448 0.947841
vt 0.149440 0.141618
vt 0.454963 0.566122
vt 0.589219 0.957993
vt 0.449112 0.562781
vt 0.596442 0.965864
vt 0.008109 0.139866
vt 0.151013 0.146515
vt 0.154182 0.623680
vt 0.168665 0.145924
vt 0.011718 0.136357
vt 0.171505 0.623080
vt 0.402265 0.615346
vt 0.177614 0.617051
vt 0.149977 0.137228
vt 0.598916 0.147041
vt 0.634339 0.788899
vt 0.009970 0.624745
vt 0.606188 0.774368
vt 0.985850 0.830102
vt 0.149227 0.632020
vt 0.976716 0.975391
vt 0.983301 0.838043
vt 0.947879 0.963751
vt 0.144310 0.633334
vt 0.970058 0.288799
vt 0.975560 0.983505
vt 0.011339 0.629555
vt 0.469393 0.558389
vt 0.149476 0.136866
vt 0.006759 0.144752
vt 0.152835 0.628506
vt 0.948933 0.289649
vn 0.010836 0.073083 -0.997267
vn 0.013680 -0.041471 -0.999046
vn -0.010798 0.075822 -0.997063
vn -0.014031 -0.031401 -0.999408
vn 0.014363 -0.593934 0.804385
vn 0.015314 -0.651866 0.758179
vn -0.014889 -0.594215 0.804168
vn -0.015343 -0.654601 0.755819
vn 0.997893 0.064812 -0.003027
vn 0.999306 0.037248 0.000787
vn 0.999283 -0.037616 -0.004407
vn 0.999554 0.029234 0.006186
vn 0.011140 -0.039246 0.999168
vn 0.011499 -0.194678 0.980800
vn -0.011116 -0.042552 0.999032
vn -0.011436 -0.208367 0.977984
vn -0.999360 -0.035656 0.002790
vn -0.989482 -0.144627 0.003037
vn -0.999329 -0.036525 -0.002786
vn -0.989046 -0.147574 -0.003025
vn -0.011134 -0.039240 -0.999168
vn -0.011546 -0.195461 -0.980644
vn 0.011116 -0.042552 -0.999032
vn 0.011391 -0.207542 -0.978160
vn -0.011227 -0.000001 -0.999937
vn 0.011227 -0.000000 -0.999937
vn -0.011166 -0.177388 0.984078
vn 0.011170 -0.177370 0.984081
vn -0.997893 0.064815 -0.003026
vn -0.999306 0.037248 0.000787
vn -0.999996 -0.000000 -0.002871
vn -0.999994 -0.000840 0.003312
vn 0.999996 -0.000000 -0.002871
vn 0.999994 -0.000839 0.003312
vn 0.999361 -0.035640 -0.002789
vn 0.999328 -0.036542 0.002789
vn -0.508950 -0.016445 -0.860639
vn -0.497345 0.081680 -0.863699
vn -0.855155 -0.013903 -0.518186
vn -0.865099 0.077113 -0.495638
vn -0.500007 -0.000017 -0.866021
vn -0.866024 -0.000017 -0.500003
vn -0.481504 -0.483410 0.731074
vn -0.578884 -0.534642 0.615671
vn -0.945307 -0.191053 0.264375
vn -0.856338 -0.101601 0.506323
vn -0.492583 -0.146756 0.857802
vn 0.865092 0.077086 -0.495654
vn 0.866022 -0.000011 -0.500005
vn 0.497317 0.081654 -0.863718
vn 0.500008 -0.000011 -0.866021
vn 0.481503 -0.483412 0.731073
vn 0.578886 -0.534640 0.615672
vn 0.832878 -0.313278 0.456259
vn 0.945306 -0.191054 0.264377
vn 0.492647 -0.146590 0.857794
vn 0.856346 -0.101434 0.506343
vn -0.818031 -0.328634 -0.472044
vn -0.865742 -0.039399 -0.498938
vn -0.478180 -0.339274 -0.810084
vn -0.499332 -0.042180 -0.865383
vn -0.499326 -0.042192 0.865386
vn -0.865736 -0.039434 0.498945
vn 0.478177 -0.339275 -0.810086
vn 0.499332 -0.042181 -0.865383
vn 0.818029 -0.328633 -0.472047
vn 0.865742 -0.039401 -0.498938
vn 0.478177 -0.339275 0.810086
vn 0.499386 -0.042402 0.865342
vn 0.865726 -0.039644 0.498947
vn 0.818031 -0.328632 0.472045
vn -0.478178 -0.339275 0.810085
vn -0.818031 -0.328635 0.472044
vn 0.010510 0.145228 0.989342
vn -0.010573 0.135324 0.990745
vn -0.137372 0.987309 0.079690
vn -0.105757 0.977431 0.182878
vn 0.110660 0.975263 0.191357
vn 0.137079 0.987363 0.079519
vn 0.989481 -0.144633 -0.003037
vn 0.989047 -0.147568 0.003025
vn -0.117727 0.993046 0.000336
vn 0.117926 0.993022 0.000335
vn -0.117926 0.993022 -0.000335
vn 0.117728 0.993046 -0.000336
vn -0.010557 0.145875 -0.989247
vn 0.010526 0.134722 -0.990828
vn -0.110658 0.975263 -0.191357
vn -0.137080 0.987363 -0.079520
vn 0.137373 0.987309 -0.079690
vn 0.105756 0.977431 -0.182878
vn -0.832877 -0.313279 0.456259
vn -0.007067 -0.796816 0.604180
vn 0.006881 -0.792159 0.610277
vn -0.091209 -0.985797 0.141012
vn -0.119572 -0.991317 0.054703
vn 0.087484 -0.986941 0.135253
vn 0.116583 -0.991748 0.053335
vn -0.999283 -0.037612 -0.004407
vn -0.999554 0.029235 0.006186
vn -0.143423 -0.989662 0.000054
vn 0.143396 -0.989665 0.000054
vn 0.508952 -0.016446 -0.860638
vn 0.855155 -0.013902 -0.518186
vn -0.120595 -0.992702 -0.000317
vn 0.120572 -0.992705 -0.000317
vn 0.127054 -0.989342 -0.071137
vn 0.008682 -0.329679 -0.944053
vn -0.009035 -0.324041 -0.946000
vn -0.127339 -0.989293 -0.071297
vn -0.095262 -0.981206 -0.167808
vn 0.099846 -0.979335 -0.175882
s 1
g polySurface80 polySurface8
usemtl lambert5SG
f 20/1/1 23/2/2 8/3/3
f 8/3/3 23/2/2 4/106/4
f 28/137/5 31/4/6 11/6/7
f 11/6/7 31/4/6 16/5/8
f 17/103/9 32/8/10 24/95/11
f 24/95/11 32/8/10 27/9/12
f 104/10/13 96/11/14 61/12/15
f 61/12/15 96/11/14 53/144/16
f 64/134/17 56/132/18 40/15/19
f 40/15/19 56/132/18 36/130/20
f 37/16/21 33/17/22 84/18/23
f 84/18/23 33/17/22 75/109/24
f 45/19/25 37/16/21 87/20/26
f 87/20/26 37/16/21 84/18/23
f 8/3/3 45/19/25 20/1/1
f 20/1/1 45/19/25 87/20/26
f 65/21/27 16/5/8 107/22/28
f 107/22/28 16/5/8 31/4/6
f 61/12/15 65/21/27 104/10/13
f 104/10/13 65/21/27 107/22/28
f 5/24/29 15/125/30 48/23/31
f 48/23/31 15/125/30 68/133/32
f 68/133/32 64/134/17 48/23/31
f 48/23/31 64/134/17 40/15/19
f 17/103/9 88/101/33 32/8/10
f 32/8/10 88/101/33 108/27/34
f 88/101/33 81/102/35 108/27/34
f 108/27/34 81/102/35 103/29/36
f 1/30/37 7/31/38 4/106/4
f 4/106/4 7/31/38 8/3/3
f 1/30/37 2/32/39 7/31/38
f 7/31/38 2/32/39 6/33/40
f 8/3/3 7/31/38 45/19/25
f 45/19/25 7/31/38 46/34/41
f 7/31/38 6/33/40 46/34/41
f 46/34/41 6/33/40 47/35/42
f 6/33/40 5/24/29 47/35/42
f 47/35/42 5/24/29 48/23/31
f 10/36/43 11/6/7 13/37/44
f 13/37/44 11/6/7 16/5/8
f 15/126/30 14/38/45 68/25/32
f 68/25/32 14/38/45 67/39/46
f 14/38/45 13/37/44 67/39/46
f 67/39/46 13/37/44 66/40/47
f 13/37/44 16/5/8 66/40/47
f 66/40/47 16/5/8 65/21/27
f 17/7/9 18/41/48 88/26/33
f 88/26/33 18/41/48 85/42/49
f 18/41/48 19/43/50 85/42/49
f 85/42/49 19/43/50 86/44/51
f 19/43/50 20/1/1 86/44/51
f 86/44/51 20/1/1 87/20/26
f 25/45/52 30/46/53 28/137/5
f 28/137/5 30/46/53 31/4/6
f 25/45/52 26/47/54 30/46/53
f 30/46/53 26/47/54 29/48/55
f 26/47/54 27/9/12 29/48/55
f 29/48/55 27/9/12 32/8/10
f 30/46/53 106/49/56 31/4/6
f 31/4/6 106/49/56 107/22/28
f 29/48/55 105/50/57 30/46/53
f 30/46/53 105/50/57 106/49/56
f 32/8/10 108/27/34 29/48/55
f 29/48/55 108/27/34 105/50/57
f 35/51/58 39/52/59 36/130/20
f 36/130/20 39/52/59 40/15/19
f 34/53/60 38/54/61 35/51/58
f 35/51/58 38/54/61 39/52/59
f 34/53/60 33/17/22 38/54/61
f 38/54/61 33/17/22 37/16/21
f 40/15/19 39/52/59 48/23/31
f 48/23/31 39/52/59 47/35/42
f 39/52/59 38/54/61 47/35/42
f 47/35/42 38/54/61 46/34/41
f 38/54/61 37/16/21 46/34/41
f 46/34/41 37/16/21 45/19/25
f 61/12/15 62/55/62 65/21/27
f 65/21/27 62/55/62 66/40/47
f 62/55/62 63/56/63 66/40/47
f 66/40/47 63/56/63 67/39/46
f 63/56/63 64/13/17 67/39/46
f 67/39/46 64/13/17 68/25/32
f 74/57/64 83/58/65 75/109/24
f 75/109/24 83/58/65 84/18/23
f 74/57/64 73/59/66 83/58/65
f 83/58/65 73/59/66 82/60/67
f 84/18/23 83/58/65 87/20/26
f 87/20/26 83/58/65 86/44/51
f 83/58/65 82/60/67 86/44/51
f 86/44/51 82/60/67 85/42/49
f 82/60/67 81/28/35 85/42/49
f 85/42/49 81/28/35 88/26/33
f 93/61/68 96/11/14 101/62/69
f 101/62/69 96/11/14 104/10/13
f 103/29/36 102/63/70 108/27/34
f 108/27/34 102/63/70 105/50/57
f 102/63/70 101/62/69 105/50/57
f 105/50/57 101/62/69 106/49/56
f 101/62/69 104/10/13 106/49/56
f 106/49/56 104/10/13 107/22/28
f 93/61/68 101/62/69 94/64/71
f 94/64/71 101/62/69 102/63/70
f 54/65/72 62/55/62 53/144/16
f 53/144/16 62/55/62 61/12/15
f 54/65/72 55/66/73 62/55/62
f 62/55/62 55/66/73 63/56/63
f 55/66/73 56/14/18 63/56/63
f 63/56/63 56/14/18 64/13/17
f 100/143/74 59/68/75 96/11/14
f 96/11/14 59/68/75 53/144/16
f 55/66/73 54/65/72 57/147/76
f 57/147/76 54/65/72 58/142/77
f 53/144/16 59/68/75 54/65/72
f 54/65/72 59/68/75 58/142/77
f 96/11/14 93/61/68 100/143/74
f 100/143/74 93/61/68 97/140/78
f 94/64/71 98/70/79 93/61/68
f 93/61/68 98/70/79 97/140/78
f 97/69/78 98/148/79 58/141/77
f 58/141/77 98/148/79 57/152/76
f 97/69/78 58/141/77 100/67/74
f 100/67/74 58/141/77 59/145/75
f 73/59/66 76/71/80 82/60/67
f 82/60/67 76/71/80 81/28/35
f 95/99/81 103/29/36 76/153/80
f 76/153/80 103/29/36 81/102/35
f 94/64/71 102/63/70 95/99/81
f 95/99/81 102/63/70 103/29/36
f 56/14/18 55/66/73 60/116/82
f 60/116/82 55/66/73 57/147/76
f 95/99/81 99/72/83 94/64/71
f 94/64/71 99/72/83 98/70/79
f 57/152/76 98/148/79 60/129/82
f 60/129/82 98/148/79 99/138/83
f 56/132/18 60/129/82 36/130/20
f 36/130/20 60/129/82 44/128/84
f 76/153/80 80/146/85 95/99/81
f 95/99/81 80/146/85 99/72/83
f 80/151/85 44/128/84 99/138/83
f 99/138/83 44/128/84 60/129/82
f 33/17/22 41/74/86 75/109/24
f 75/109/24 41/74/86 79/75/87
f 33/17/22 34/53/60 41/74/86
f 41/74/86 34/53/60 42/135/88
f 35/51/58 43/120/89 34/53/60
f 34/53/60 43/120/89 42/135/88
f 36/130/20 44/128/84 35/51/58
f 35/51/58 44/128/84 43/120/89
f 76/71/80 73/59/66 80/73/85
f 80/73/85 73/59/66 77/77/90
f 73/59/66 74/57/64 77/77/90
f 77/77/90 74/57/64 78/78/91
f 75/109/24 79/75/87 74/57/64
f 74/57/64 79/75/87 78/78/91
f 77/127/90 43/122/89 80/151/85
f 80/151/85 43/122/89 44/128/84
f 42/76/88 43/122/89 78/131/91
f 78/131/91 43/122/89 77/127/90
f 42/150/88 78/78/91 41/74/86
f 41/74/86 78/78/91 79/75/87
f 10/36/43 13/37/44 9/79/92
f 9/79/92 13/37/44 14/38/45
f 72/80/93 111/139/94 11/6/7
f 11/6/7 111/139/94 28/137/5
f 11/6/7 10/36/43 72/80/93
f 72/80/93 10/36/43 69/115/95
f 10/36/43 9/79/92 69/115/95
f 69/115/95 9/79/92 70/83/96
f 25/45/52 110/111/97 26/47/54
f 26/47/54 110/111/97 109/108/98
f 28/137/5 111/139/94 25/45/52
f 25/45/52 111/139/94 110/111/97
f 69/82/95 70/149/96 110/110/97
f 110/110/97 70/149/96 109/104/98
f 69/82/95 110/110/97 72/114/93
f 72/114/93 110/110/97 111/81/94
f 2/32/39 3/84/99 6/33/40
f 6/33/40 3/84/99 5/24/29
f 12/123/100 15/125/30 3/84/99
f 3/84/99 15/125/30 5/24/29
f 9/79/92 14/38/45 12/124/100
f 12/124/100 14/38/45 15/126/30
f 9/79/92 12/124/100 70/83/96
f 70/83/96 12/124/100 71/121/101
f 26/47/54 109/108/98 27/9/12
f 27/9/12 109/108/98 112/94/102
f 112/98/102 109/104/98 71/85/101
f 71/85/101 109/104/98 70/149/96
f 20/1/1 19/43/50 23/2/2
f 23/2/2 19/43/50 22/86/103
f 18/41/48 21/87/104 19/43/50
f 19/43/50 21/87/104 22/86/103
f 17/7/9 24/96/11 18/41/48
f 18/41/48 24/96/11 21/87/104
f 12/123/100 3/84/99 71/85/101
f 71/85/101 3/84/99 52/88/105
f 91/93/106 24/95/11 112/94/102
f 112/94/102 24/95/11 27/9/12
f 71/85/101 52/88/105 112/98/102
f 112/98/102 52/88/105 91/136/106
f 21/87/104 24/96/11 90/112/107
f 90/112/107 24/96/11 91/100/106
f 23/2/2 92/105/108 4/106/4
f 4/106/4 92/105/108 51/90/109
f 2/32/39 49/91/110 3/84/99
f 3/84/99 49/91/110 52/88/105
f 1/30/37 50/119/111 2/32/39
f 2/32/39 50/119/111 49/91/110
f 1/30/37 4/106/4 50/119/111
f 50/119/111 4/106/4 51/90/109
f 22/86/103 89/117/112 23/2/2
f 23/2/2 89/117/112 92/105/108
f 90/112/107 89/117/112 21/87/104
f 21/87/104 89/117/112 22/86/103
f 49/97/110 90/113/107 52/88/105
f 52/88/105 90/113/107 91/136/106
f 89/92/112 90/113/107 50/118/111
f 50/118/111 90/113/107 49/97/110
f 89/92/112 50/118/111 92/89/108
f 92/89/108 50/118/111 51/107/109
